<mxfile host="app.diagrams.net" agent="Mozilla/5.0 (Windows NT 10.0; Win64; x64) AppleWebKit/537.36 (KHTML, like Gecko) Chrome/128.0.0.0 Safari/537.36 OPR/114.0.0.0 (Edition Yx GX)" version="24.8.3">
  <diagram id="R2lEEEUBdFMjLlhIrx00" name="Page-1">
    <mxGraphModel dx="1161" dy="663" grid="1" gridSize="10" guides="1" tooltips="1" connect="1" arrows="1" fold="1" page="1" pageScale="1" pageWidth="850" pageHeight="1100" math="0" shadow="0" extFonts="Permanent Marker^https://fonts.googleapis.com/css?family=Permanent+Marker">
      <root>
        <mxCell id="0" />
        <mxCell id="1" parent="0" />
        <mxCell id="PewiOTrZ7ExZwnoL11AP-51" style="edgeStyle=orthogonalEdgeStyle;rounded=0;orthogonalLoop=1;jettySize=auto;html=1;exitX=0.5;exitY=0;exitDx=0;exitDy=0;exitPerimeter=0;entryX=0;entryY=0.5;entryDx=0;entryDy=0;" edge="1" parent="1" source="PewiOTrZ7ExZwnoL11AP-1" target="PewiOTrZ7ExZwnoL11AP-5">
          <mxGeometry relative="1" as="geometry" />
        </mxCell>
        <mxCell id="PewiOTrZ7ExZwnoL11AP-53" style="edgeStyle=orthogonalEdgeStyle;rounded=0;orthogonalLoop=1;jettySize=auto;html=1;exitX=0.5;exitY=0;exitDx=0;exitDy=0;exitPerimeter=0;entryX=0;entryY=0.5;entryDx=0;entryDy=0;" edge="1" parent="1" source="PewiOTrZ7ExZwnoL11AP-1" target="PewiOTrZ7ExZwnoL11AP-7">
          <mxGeometry relative="1" as="geometry" />
        </mxCell>
        <mxCell id="PewiOTrZ7ExZwnoL11AP-54" style="edgeStyle=orthogonalEdgeStyle;rounded=0;orthogonalLoop=1;jettySize=auto;html=1;exitX=0.5;exitY=0.5;exitDx=0;exitDy=0;exitPerimeter=0;entryX=0;entryY=0.5;entryDx=0;entryDy=0;" edge="1" parent="1" source="PewiOTrZ7ExZwnoL11AP-1" target="PewiOTrZ7ExZwnoL11AP-6">
          <mxGeometry relative="1" as="geometry" />
        </mxCell>
        <mxCell id="PewiOTrZ7ExZwnoL11AP-55" style="edgeStyle=orthogonalEdgeStyle;rounded=0;orthogonalLoop=1;jettySize=auto;html=1;exitX=0.5;exitY=0.5;exitDx=0;exitDy=0;exitPerimeter=0;" edge="1" parent="1" source="PewiOTrZ7ExZwnoL11AP-1" target="PewiOTrZ7ExZwnoL11AP-49">
          <mxGeometry relative="1" as="geometry" />
        </mxCell>
        <mxCell id="PewiOTrZ7ExZwnoL11AP-66" style="edgeStyle=orthogonalEdgeStyle;rounded=0;orthogonalLoop=1;jettySize=auto;html=1;exitX=0.5;exitY=0.5;exitDx=0;exitDy=0;exitPerimeter=0;" edge="1" parent="1" source="PewiOTrZ7ExZwnoL11AP-1" target="PewiOTrZ7ExZwnoL11AP-65">
          <mxGeometry relative="1" as="geometry" />
        </mxCell>
        <mxCell id="PewiOTrZ7ExZwnoL11AP-1" value="Менеджер по развитию" style="shape=umlActor;verticalLabelPosition=bottom;verticalAlign=top;html=1;outlineConnect=0;" vertex="1" parent="1">
          <mxGeometry x="70" y="240" width="30" height="60" as="geometry" />
        </mxCell>
        <mxCell id="PewiOTrZ7ExZwnoL11AP-62" style="edgeStyle=orthogonalEdgeStyle;rounded=0;orthogonalLoop=1;jettySize=auto;html=1;exitX=0;exitY=0.3333333333333333;exitDx=0;exitDy=0;exitPerimeter=0;entryX=1;entryY=0;entryDx=0;entryDy=0;startArrow=classic;startFill=1;endArrow=none;endFill=0;" edge="1" parent="1" source="PewiOTrZ7ExZwnoL11AP-2" target="PewiOTrZ7ExZwnoL11AP-16">
          <mxGeometry relative="1" as="geometry" />
        </mxCell>
        <mxCell id="PewiOTrZ7ExZwnoL11AP-64" style="edgeStyle=orthogonalEdgeStyle;rounded=0;orthogonalLoop=1;jettySize=auto;html=1;exitX=1;exitY=0.3333333333333333;exitDx=0;exitDy=0;exitPerimeter=0;entryX=1;entryY=0;entryDx=0;entryDy=0;" edge="1" parent="1" source="PewiOTrZ7ExZwnoL11AP-2" target="PewiOTrZ7ExZwnoL11AP-47">
          <mxGeometry relative="1" as="geometry" />
        </mxCell>
        <mxCell id="PewiOTrZ7ExZwnoL11AP-2" value="Игрок" style="shape=umlActor;verticalLabelPosition=bottom;verticalAlign=top;html=1;outlineConnect=0;" vertex="1" parent="1">
          <mxGeometry x="580" y="260" width="30" height="60" as="geometry" />
        </mxCell>
        <mxCell id="PewiOTrZ7ExZwnoL11AP-63" style="edgeStyle=orthogonalEdgeStyle;rounded=0;orthogonalLoop=1;jettySize=auto;html=1;exitX=0.5;exitY=0.5;exitDx=0;exitDy=0;exitPerimeter=0;entryX=0.5;entryY=0;entryDx=0;entryDy=0;" edge="1" parent="1" source="PewiOTrZ7ExZwnoL11AP-3" target="PewiOTrZ7ExZwnoL11AP-27">
          <mxGeometry relative="1" as="geometry" />
        </mxCell>
        <mxCell id="PewiOTrZ7ExZwnoL11AP-3" value="Работник техобслуживания" style="shape=umlActor;verticalLabelPosition=bottom;verticalAlign=top;html=1;outlineConnect=0;" vertex="1" parent="1">
          <mxGeometry x="720" y="280" width="30" height="60" as="geometry" />
        </mxCell>
        <mxCell id="PewiOTrZ7ExZwnoL11AP-34" style="edgeStyle=orthogonalEdgeStyle;rounded=0;orthogonalLoop=1;jettySize=auto;html=1;exitX=0;exitY=0.3333333333333333;exitDx=0;exitDy=0;exitPerimeter=0;entryX=1;entryY=0.5;entryDx=0;entryDy=0;" edge="1" parent="1" source="PewiOTrZ7ExZwnoL11AP-4" target="PewiOTrZ7ExZwnoL11AP-15">
          <mxGeometry relative="1" as="geometry" />
        </mxCell>
        <mxCell id="PewiOTrZ7ExZwnoL11AP-37" style="edgeStyle=orthogonalEdgeStyle;rounded=0;orthogonalLoop=1;jettySize=auto;html=1;exitX=0;exitY=1;exitDx=0;exitDy=0;exitPerimeter=0;" edge="1" parent="1" source="PewiOTrZ7ExZwnoL11AP-4" target="PewiOTrZ7ExZwnoL11AP-12">
          <mxGeometry relative="1" as="geometry" />
        </mxCell>
        <mxCell id="PewiOTrZ7ExZwnoL11AP-38" style="edgeStyle=orthogonalEdgeStyle;rounded=0;orthogonalLoop=1;jettySize=auto;html=1;exitX=0;exitY=1;exitDx=0;exitDy=0;exitPerimeter=0;" edge="1" parent="1" source="PewiOTrZ7ExZwnoL11AP-4" target="PewiOTrZ7ExZwnoL11AP-13">
          <mxGeometry relative="1" as="geometry" />
        </mxCell>
        <mxCell id="PewiOTrZ7ExZwnoL11AP-39" style="edgeStyle=orthogonalEdgeStyle;rounded=0;orthogonalLoop=1;jettySize=auto;html=1;exitX=0;exitY=1;exitDx=0;exitDy=0;exitPerimeter=0;" edge="1" parent="1" source="PewiOTrZ7ExZwnoL11AP-4" target="PewiOTrZ7ExZwnoL11AP-14">
          <mxGeometry relative="1" as="geometry" />
        </mxCell>
        <mxCell id="PewiOTrZ7ExZwnoL11AP-4" value="Служба контроля" style="shape=umlActor;verticalLabelPosition=bottom;verticalAlign=top;html=1;outlineConnect=0;" vertex="1" parent="1">
          <mxGeometry x="590" y="30" width="30" height="60" as="geometry" />
        </mxCell>
        <mxCell id="PewiOTrZ7ExZwnoL11AP-5" value="Составление стратегии&lt;br&gt;по развитию казино" style="ellipse;whiteSpace=wrap;html=1;align=center;" vertex="1" parent="1">
          <mxGeometry x="115" y="60" width="160" height="40" as="geometry" />
        </mxCell>
        <mxCell id="PewiOTrZ7ExZwnoL11AP-6" value="Анализ прибыльности и популярностии игр" style="ellipse;whiteSpace=wrap;html=1;align=center;" vertex="1" parent="1">
          <mxGeometry x="140" y="190" width="150" height="50" as="geometry" />
        </mxCell>
        <mxCell id="PewiOTrZ7ExZwnoL11AP-7" value="Анализ прибыли и продолжительности игровых сессий" style="ellipse;whiteSpace=wrap;html=1;align=center;" vertex="1" parent="1">
          <mxGeometry x="115" y="120" width="190" height="60" as="geometry" />
        </mxCell>
        <mxCell id="PewiOTrZ7ExZwnoL11AP-58" style="edgeStyle=orthogonalEdgeStyle;rounded=0;orthogonalLoop=1;jettySize=auto;html=1;exitX=0;exitY=0.3333333333333333;exitDx=0;exitDy=0;exitPerimeter=0;entryX=1;entryY=0.5;entryDx=0;entryDy=0;" edge="1" parent="1" source="PewiOTrZ7ExZwnoL11AP-11" target="PewiOTrZ7ExZwnoL11AP-49">
          <mxGeometry relative="1" as="geometry" />
        </mxCell>
        <mxCell id="PewiOTrZ7ExZwnoL11AP-59" style="edgeStyle=orthogonalEdgeStyle;rounded=0;orthogonalLoop=1;jettySize=auto;html=1;exitX=1;exitY=1;exitDx=0;exitDy=0;exitPerimeter=0;" edge="1" parent="1" source="PewiOTrZ7ExZwnoL11AP-11" target="PewiOTrZ7ExZwnoL11AP-16">
          <mxGeometry relative="1" as="geometry" />
        </mxCell>
        <mxCell id="PewiOTrZ7ExZwnoL11AP-11" value="Диллер" style="shape=umlActor;verticalLabelPosition=bottom;verticalAlign=top;html=1;outlineConnect=0;" vertex="1" parent="1">
          <mxGeometry x="445" y="260" width="30" height="60" as="geometry" />
        </mxCell>
        <mxCell id="PewiOTrZ7ExZwnoL11AP-12" value="Блокировка игрока" style="ellipse;whiteSpace=wrap;html=1;align=center;" vertex="1" parent="1">
          <mxGeometry x="545" y="180" width="100" height="40" as="geometry" />
        </mxCell>
        <mxCell id="PewiOTrZ7ExZwnoL11AP-56" style="edgeStyle=orthogonalEdgeStyle;rounded=0;orthogonalLoop=1;jettySize=auto;html=1;exitX=0.5;exitY=1;exitDx=0;exitDy=0;" edge="1" parent="1" source="PewiOTrZ7ExZwnoL11AP-13" target="PewiOTrZ7ExZwnoL11AP-11">
          <mxGeometry relative="1" as="geometry" />
        </mxCell>
        <mxCell id="PewiOTrZ7ExZwnoL11AP-13" value="Блокировка диллера" style="ellipse;whiteSpace=wrap;html=1;align=center;" vertex="1" parent="1">
          <mxGeometry x="410" y="180" width="100" height="40" as="geometry" />
        </mxCell>
        <mxCell id="PewiOTrZ7ExZwnoL11AP-33" style="edgeStyle=orthogonalEdgeStyle;rounded=0;orthogonalLoop=1;jettySize=auto;html=1;exitX=0.5;exitY=1;exitDx=0;exitDy=0;" edge="1" parent="1" source="PewiOTrZ7ExZwnoL11AP-14" target="PewiOTrZ7ExZwnoL11AP-3">
          <mxGeometry relative="1" as="geometry" />
        </mxCell>
        <mxCell id="PewiOTrZ7ExZwnoL11AP-14" value="Блокировка работника техобслуживания" style="ellipse;whiteSpace=wrap;html=1;align=center;" vertex="1" parent="1">
          <mxGeometry x="665" y="180" width="140" height="50" as="geometry" />
        </mxCell>
        <mxCell id="PewiOTrZ7ExZwnoL11AP-15" value="Поиск неисправных игровых автоматов" style="ellipse;whiteSpace=wrap;html=1;align=center;" vertex="1" parent="1">
          <mxGeometry x="330" y="30" width="140" height="40" as="geometry" />
        </mxCell>
        <mxCell id="PewiOTrZ7ExZwnoL11AP-16" value="Предоставление услуги казино на столе" style="ellipse;whiteSpace=wrap;html=1;align=center;" vertex="1" parent="1">
          <mxGeometry x="400" y="400" width="150" height="50" as="geometry" />
        </mxCell>
        <mxCell id="PewiOTrZ7ExZwnoL11AP-27" value="Диагностика игровых автоматов" style="ellipse;whiteSpace=wrap;html=1;align=center;" vertex="1" parent="1">
          <mxGeometry x="665" y="420" width="140" height="45" as="geometry" />
        </mxCell>
        <mxCell id="PewiOTrZ7ExZwnoL11AP-47" value="Игра в игровых автоматах" style="ellipse;whiteSpace=wrap;html=1;align=center;" vertex="1" parent="1">
          <mxGeometry x="565" y="360" width="100" height="40" as="geometry" />
        </mxCell>
        <mxCell id="PewiOTrZ7ExZwnoL11AP-49" value="Упрощенное трудоустройство в другие казино" style="ellipse;whiteSpace=wrap;html=1;align=center;" vertex="1" parent="1">
          <mxGeometry x="150" y="350" width="110" height="70" as="geometry" />
        </mxCell>
        <mxCell id="PewiOTrZ7ExZwnoL11AP-57" style="edgeStyle=orthogonalEdgeStyle;rounded=0;orthogonalLoop=1;jettySize=auto;html=1;exitX=0.5;exitY=1;exitDx=0;exitDy=0;entryX=0.5;entryY=0;entryDx=0;entryDy=0;entryPerimeter=0;" edge="1" parent="1" source="PewiOTrZ7ExZwnoL11AP-12" target="PewiOTrZ7ExZwnoL11AP-2">
          <mxGeometry relative="1" as="geometry" />
        </mxCell>
        <mxCell id="PewiOTrZ7ExZwnoL11AP-65" value="Получение рейтинга работника" style="ellipse;whiteSpace=wrap;html=1;align=center;" vertex="1" parent="1">
          <mxGeometry x="17.5" y="400" width="135" height="40" as="geometry" />
        </mxCell>
      </root>
    </mxGraphModel>
  </diagram>
</mxfile>
